<svg viewBox="0 0 100 100" fill="none" stroke="currentColor" stroke-width="1.5" stroke-linejoin="miter" xmlns="http://www.w3.org/2000/svg">
  <rect x="45" y="25" width="5" height="5" />
  <rect x="50" y="25" width="5" height="5" />
  <rect x="55" y="25" width="5" height="5" />
  <rect x="45" y="30" width="5" height="5" />
  <rect x="55" y="30" width="5" height="5" />
  <rect x="45" y="35" width="5" height="5" />
  <rect x="50" y="35" width="5" height="5" />
  <rect x="55" y="35" width="5" height="5" />
  <rect x="50" y="15" width="5" height="5" />
  <rect x="45" y="10" width="5" height="5" />
  <rect x="50" y="10" width="5" height="5" />
  <rect x="55" y="10" width="5" height="5" />
  <rect x="50" y="5" width="5" height="5" />
  <rect x="50" y="45" width="5" height="5" />
  <rect x="45" y="50" width="5" height="5" />
  <rect x="50" y="50" width="5" height="5" />
  <rect x="55" y="50" width="5" height="5" />
  <rect x="50" y="55" width="5" height="5" />
  <rect x="35" y="30" width="5" height="5" />
  <rect x="30" y="25" width="5" height="5" />
  <rect x="30" y="30" width="5" height="5" />
  <rect x="30" y="35" width="5" height="5" />
  <rect x="25" y="30" width="5" height="5" />
  <rect x="65" y="30" width="5" height="5" />
  <rect x="70" y="25" width="5" height="5" />
  <rect x="70" y="30" width="5" height="5" />
  <rect x="70" y="35" width="5" height="5" />
  <rect x="75" y="30" width="5" height="5" />
  <rect x="60" y="20" width="5" height="5" />
  <rect x="40" y="20" width="5" height="5" />
  <rect x="60" y="40" width="5" height="5" />
  <rect x="40" y="40" width="5" height="5" />
</svg>